<?xml version="1.0" encoding="iso-8859-1"?>
<!-- Generator: Adobe Illustrator 21.0.0, SVG Export Plug-In . SVG Version: 6.00 Build 0)  -->
<svg version="1.1" id="Capa_1" xmlns="http://www.w3.org/2000/svg" xmlns:xlink="http://www.w3.org/1999/xlink" x="0px" y="0px"
	 viewBox="0 0 512 512" style="enable-background:new 0 0 512 512;" xml:space="preserve">
<circle style="fill:#ed6253;" cx="256" cy="256" r="256"/>
<path style="fill:#ed6253;" d="M512,256c0-1.513-0.031-3.018-0.057-4.524l-92.174-92.174L95.122,379.46L225.89,510.228
	C235.768,511.386,245.812,512,256,512C397.385,512,512,397.385,512,256z"/>
<polygon style="fill:#FFFFFF;" points="419.769,372.255 92.231,372.255 92.231,119.733 191.254,119.733 234.895,159.302 
	419.769,159.302 "/>
<rect x="255.57" y="159.3" style="fill:#F2F6FC;" width="164.2" height="212.95"/>
<path style="fill:#FFD400;" d="M387.31,391.706H124.652c-22.976,0-41.631-18.57-41.735-41.546l-0.583-128.482H220.88l46.45-42.925
	h162.337l-0.621,171.37C428.962,373.113,410.301,391.706,387.31,391.706z"/>
<path style="fill:#FFB000;" d="M267.329,178.753l-11.758,10.866v202.088H387.31c22.991,0,41.652-18.593,41.735-41.584l0.621-171.37
	L267.329,178.753L267.329,178.753z"/>
<rect x="112.74" y="147.11" style="fill:#CDD2E1;" width="87.64" height="31.642"/>
<rect x="112.74" y="147.11" style="fill:#4A7AFF;" width="19.674" height="31.642"/>
<g>
</g>
<g>
</g>
<g>
</g>
<g>
</g>
<g>
</g>
<g>
</g>
<g>
</g>
<g>
</g>
<g>
</g>
<g>
</g>
<g>
</g>
<g>
</g>
<g>
</g>
<g>
</g>
<g>
</g>
</svg>
