<?xml version="1.0" encoding="iso-8859-1"?>
<!-- Generator: Adobe Illustrator 21.0.0, SVG Export Plug-In . SVG Version: 6.00 Build 0)  -->
<svg version="1.1" id="Capa_1" xmlns="http://www.w3.org/2000/svg" xmlns:xlink="http://www.w3.org/1999/xlink" x="0px" y="0px"
	 viewBox="0 0 512 512" style="enable-background:new 0 0 512 512;" xml:space="preserve">
<circle style="fill:#00C8C8;" cx="256" cy="256" r="256"/>
<path style="fill:#1CADB5;" d="M511.28,275.28L389.333,153.333L122.667,421.5l86.142,86.142C224.106,510.493,239.876,512,256,512
	C390.899,512,501.422,407.659,511.28,275.28z"/>
<polygon style="fill:#FFFFFF;" points="311,75 122.667,75 122.667,421.5 389.333,421.5 389.333,153.333 "/>
<polygon style="fill:#F2F6FC;" points="389.333,153.333 311,75 255.571,75 255.571,421.5 389.333,421.5 "/>
<polygon style="fill:#DCE1EB;" points="311,153.333 389.333,153.333 311,75 "/>
<rect x="156" y="210.34" style="fill:#4A7AFF;" width="200" height="176.66"/>
<rect x="255.57" y="210.34" style="fill:#2864F0;" width="100.43" height="176.66"/>
<g>
	<rect x="167.67" y="220.5" style="fill:#FFFFFF;" width="20.17" height="38.11"/>
	<rect x="167.67" y="279.62" style="fill:#FFFFFF;" width="20.17" height="38.11"/>
	<rect x="167.67" y="338.73" style="fill:#FFFFFF;" width="20.17" height="38.11"/>
</g>
<g>
	<rect x="324.17" y="220.5" style="fill:#F2F6FC;" width="20.17" height="38.11"/>
	<rect x="324.17" y="279.62" style="fill:#F2F6FC;" width="20.17" height="38.11"/>
	<rect x="324.17" y="338.73" style="fill:#F2F6FC;" width="20.17" height="38.11"/>
</g>
<circle style="fill:#2864F0;" cx="256" cy="298.67" r="59.71"/>
<path style="fill:#0053BF;" d="M256,238.961c-0.144,0-0.285,0.01-0.429,0.011V358.37c0.144,0.001,0.285,0.011,0.429,0.011
	c32.977,0,59.71-26.733,59.71-59.71S288.977,238.961,256,238.961z"/>
<polygon style="fill:#BFE1FF;" points="237.732,252.38 298.268,298.671 237.732,344.962 "/>
<polygon style="fill:#A3D4FF;" points="255.571,266.021 255.571,331.32 298.268,298.671 "/>
<g>
</g>
<g>
</g>
<g>
</g>
<g>
</g>
<g>
</g>
<g>
</g>
<g>
</g>
<g>
</g>
<g>
</g>
<g>
</g>
<g>
</g>
<g>
</g>
<g>
</g>
<g>
</g>
<g>
</g>
</svg>
