<?xml version="1.0" encoding="iso-8859-1"?>
<!-- Generator: Adobe Illustrator 21.0.0, SVG Export Plug-In . SVG Version: 6.00 Build 0)  -->
<svg version="1.1" id="Capa_1" xmlns="http://www.w3.org/2000/svg" xmlns:xlink="http://www.w3.org/1999/xlink" x="0px" y="0px"
	 viewBox="0 0 512 512" style="enable-background:new 0 0 512 512;" xml:space="preserve">
<circle style="fill:#ed6253;" cx="256" cy="256" r="256"/>
<path style="fill:#ed6253;" d="M511.28,275.28L389.333,153.333L122.667,421.5l86.142,86.142C224.106,510.493,239.876,512,256,512
	C390.899,512,501.422,407.659,511.28,275.28z"/>
<polygon style="fill:#FFFFFF;" points="311,75 122.667,75 122.667,421.5 389.333,421.5 389.333,153.333 "/>
<polygon style="fill:#F7F7F7;" points="389.333,153.333 311,75 255.571,75 255.571,421.5 389.333,421.5 "/>
<g>
	<polygon style="fill:#DCE1EB;" points="311,153.333 389.333,153.333 311,75 	"/>
	<rect x="158.5" y="190" style="fill:#DCE1EB;" width="195" height="17.5"/>
</g>
<rect x="255.57" y="190" style="fill:#CDD2E1;" width="97.93" height="17.5"/>
<rect x="158.5" y="231.25" style="fill:#DCE1EB;" width="195" height="17.5"/>
<rect x="255.57" y="231.25" style="fill:#CDD2E1;" width="97.93" height="17.5"/>
<rect x="158.5" y="272.5" style="fill:#DCE1EB;" width="195" height="17.5"/>
<rect x="255.57" y="272.5" style="fill:#CDD2E1;" width="97.93" height="17.5"/>
<rect x="158.5" y="313.75" style="fill:#DCE1EB;" width="195" height="17.5"/>
<rect x="255.57" y="313.75" style="fill:#CDD2E1;" width="97.93" height="17.5"/>
<rect x="158.5" y="355" style="fill:#DCE1EB;" width="97.07" height="17.5"/>
<g>
</g>
<g>
</g>
<g>
</g>
<g>
</g>
<g>
</g>
<g>
</g>
<g>
</g>
<g>
</g>
<g>
</g>
<g>
</g>
<g>
</g>
<g>
</g>
<g>
</g>
<g>
</g>
<g>
</g>
</svg>
